# Max2Obj Version 4.0 Mar 10th, 2001
#
# object ChamferBox01 to come ...
#
v  -0.56 2.709 -0.277
v  0.525 2.709 -0.277
v  -0.56 2.709 0.312
v  0.525 2.709 0.312
v  -0.56 2.697 -0.306
v  -0.58 2.697 -0.297
v  -0.588 2.697 -0.277
v  -0.588 2.697 0.312
v  -0.58 2.697 0.332
v  -0.56 2.697 0.341
v  0.525 2.697 0.341
v  0.545 2.697 0.332
v  0.553 2.697 0.312
v  0.553 2.697 -0.277
v  0.545 2.697 -0.297
v  0.525 2.697 -0.306
v  -0.56 2.669 -0.317
v  -0.588 2.669 -0.306
v  -0.6 2.669 -0.277
v  -0.6 2.669 0.312
v  -0.588 2.669 0.341
v  -0.56 2.669 0.352
v  0.525 2.669 0.352
v  0.553 2.669 0.341
v  0.565 2.669 0.312
v  0.565 2.669 -0.277
v  0.553 2.669 -0.306
v  0.525 2.669 -0.317
v  -0.56 0.095 -0.317
v  -0.588 0.095 -0.306
v  -0.6 0.095 -0.277
v  -0.6 0.095 0.312
v  -0.588 0.095 0.341
v  -0.56 0.095 0.352
v  0.525 0.095 0.352
v  0.553 0.095 0.341
v  0.565 0.095 0.312
v  0.565 0.095 -0.277
v  0.553 0.095 -0.306
v  0.525 0.095 -0.317
v  -0.56 0.067 -0.306
v  -0.58 0.067 -0.297
v  -0.588 0.067 -0.277
v  -0.588 0.067 0.312
v  -0.58 0.067 0.332
v  -0.56 0.067 0.341
v  0.525 0.067 0.341
v  0.545 0.067 0.332
v  0.553 0.067 0.312
v  0.553 0.067 -0.277
v  0.545 0.067 -0.297
v  0.525 0.067 -0.306
v  0.525 0.055 0.312
v  -0.56 0.055 0.312
v  0.525 0.055 -0.277
v  -0.56 0.055 -0.277
# 56 vertices

vt  0.034 0.94 0
vt  0.966 0.94 0
vt  0.034 0.06 0
vt  0.966 0.06 0
vt  0.034 0.983 0
vt  0.017 0.97 0
vt  0.01 0.94 0
vt  0.01 0.06 0
vt  0.017 0.03 0
vt  0.034 0.017 0
vt  0.966 0.017 0
vt  0.983 0.03 0
vt  0.99 0.06 0
vt  0.99 0.94 0
vt  0.983 0.97 0
vt  0.966 0.983 0
vt  0.034 1 0
vt  0.01 0.983 0
vt  0 0.94 0
vt  0 0.06 0
vt  0.01 0.017 0
vt  0.034 0 0
vt  0.966 0 0
vt  0.99 0.017 0
vt  1 0.06 0
vt  1 0.94 0
vt  0.99 0.983 0
vt  0.966 1 0
vt  0 1 0
vt  0.008 1 0
vt  0.016 1 0
vt  0.173 1 0
vt  0.182 1 0
vt  0.19 1 0
vt  0.479 1 0
vt  0.487 1 0
vt  0.495 1 0
vt  0.652 1 0
vt  0.66 1 0
vt  0.668 1 0
vt  0 0 0
vt  0.008 0 0
vt  0.016 0 0
vt  0.173 0 0
vt  0.182 0 0
vt  0.19 0 0
vt  0.479 0 0
vt  0.487 0 0
vt  0.495 0 0
vt  0.652 0 0
vt  0.66 0 0
vt  0.668 0 0
vt  0.034 0 0
vt  0.01 0.017 0
vt  0 0.06 0
vt  0 0.94 0
vt  0.01 0.983 0
vt  0.034 1 0
vt  0.966 1 0
vt  0.99 0.983 0
vt  1 0.94 0
vt  1 0.06 0
vt  0.99 0.017 0
vt  0.966 0 0
vt  0.034 0.017 0
vt  0.017 0.03 0
vt  0.01 0.06 0
vt  0.01 0.94 0
vt  0.017 0.97 0
vt  0.034 0.983 0
vt  0.966 0.983 0
vt  0.983 0.97 0
vt  0.99 0.94 0
vt  0.99 0.06 0
vt  0.983 0.03 0
vt  0.966 0.017 0
vt  0.966 0.94 0
vt  0.034 0.94 0
vt  0.966 0.06 0
vt  0.034 0.06 0
vt  1 1 0
vt  1 0 0
# 82 texture vertices

vn  -0.166 0.972 -0.166
vn  0.166 0.972 -0.166
vn  -0.166 0.972 0.166
vn  0.166 0.972 0.166
vn  -0.145 0.679 -0.719
vn  -0.529 0.663 -0.529
vn  -0.719 0.679 -0.145
vn  -0.719 0.679 0.145
vn  -0.529 0.663 0.529
vn  -0.145 0.679 0.719
vn  0.145 0.679 0.719
vn  0.529 0.663 0.529
vn  0.719 0.679 0.145
vn  0.719 0.679 -0.145
vn  0.529 0.663 -0.529
vn  0.145 0.679 -0.719
vn  -0.188 0.188 -0.964
vn  -0.695 0.187 -0.695
vn  -0.964 0.188 -0.188
vn  -0.964 0.188 0.188
vn  -0.695 0.187 0.695
vn  -0.188 0.188 0.964
vn  0.188 0.188 0.964
vn  0.695 0.187 0.695
vn  0.964 0.188 0.188
vn  0.964 0.188 -0.188
vn  0.695 0.187 -0.695
vn  0.188 0.188 -0.964
vn  -0.188 -0.188 -0.964
vn  -0.695 -0.187 -0.695
vn  -0.964 -0.188 -0.188
vn  -0.964 -0.188 0.188
vn  -0.695 -0.187 0.695
vn  -0.188 -0.188 0.964
vn  0.188 -0.188 0.964
vn  0.695 -0.187 0.695
vn  0.964 -0.188 0.188
vn  0.964 -0.188 -0.188
vn  0.695 -0.187 -0.695
vn  0.188 -0.188 -0.964
vn  -0.145 -0.679 -0.719
vn  -0.529 -0.663 -0.529
vn  -0.719 -0.679 -0.145
vn  -0.719 -0.679 0.145
vn  -0.529 -0.663 0.529
vn  -0.145 -0.679 0.719
vn  0.145 -0.679 0.719
vn  0.529 -0.663 0.529
vn  0.719 -0.679 0.145
vn  0.719 -0.679 -0.145
vn  0.529 -0.663 -0.529
vn  0.145 -0.679 -0.719
vn  0.166 -0.972 0.166
vn  -0.166 -0.972 0.166
vn  0.166 -0.972 -0.166
vn  -0.166 -0.972 -0.166
# 56 vertex normals

g ChamferBox01
s 1
f 1/1/1 3/3/3 4/4/4
f 1/1/1 4/4/4 2/2/2
f 1/1/1 5/5/5 6/6/6
f 1/1/1 6/6/6 7/7/7
f 1/1/1 7/7/7 8/8/8
f 1/1/1 8/8/8 3/3/3
f 3/3/3 8/8/8 9/9/9
f 3/3/3 9/9/9 10/10/10
f 3/3/3 10/10/10 11/11/11
f 3/3/3 11/11/11 4/4/4
f 4/4/4 11/11/11 12/12/12
f 4/4/4 12/12/12 13/13/13
f 4/4/4 13/13/13 14/14/14
f 4/4/4 14/14/14 2/2/2
f 2/2/2 14/14/14 15/15/15
f 2/2/2 15/15/15 16/16/16
f 2/2/2 16/16/16 5/5/5
f 2/2/2 5/5/5 1/1/1
f 5/5/5 17/17/17 18/18/18
f 5/5/5 18/18/18 6/6/6
f 6/6/6 18/18/18 19/19/19
f 6/6/6 19/19/19 7/7/7
f 7/7/7 19/19/19 20/20/20
f 7/7/7 20/20/20 8/8/8
f 8/8/8 20/20/20 21/21/21
f 8/8/8 21/21/21 9/9/9
f 9/9/9 21/21/21 22/22/22
f 9/9/9 22/22/22 10/10/10
f 10/10/10 22/22/22 23/23/23
f 10/10/10 23/23/23 11/11/11
f 11/11/11 23/23/23 24/24/24
f 11/11/11 24/24/24 12/12/12
f 12/12/12 24/24/24 25/25/25
f 12/12/12 25/25/25 13/13/13
f 13/13/13 25/25/25 26/26/26
f 13/13/13 26/26/26 14/14/14
f 14/14/14 26/26/26 27/27/27
f 14/14/14 27/27/27 15/15/15
f 15/15/15 27/27/27 28/28/28
f 15/15/15 28/28/28 16/16/16
f 16/16/16 28/28/28 17/17/17
f 16/16/16 17/17/17 5/5/5
f 17/29/17 29/41/29 30/42/30
f 17/29/17 30/42/30 18/30/18
f 18/30/18 30/42/30 31/43/31
f 18/30/18 31/43/31 19/31/19
f 19/31/19 31/43/31 32/44/32
f 19/31/19 32/44/32 20/32/20
f 20/32/20 32/44/32 33/45/33
f 20/32/20 33/45/33 21/33/21
f 21/33/21 33/45/33 34/46/34
f 21/33/21 34/46/34 22/34/22
f 22/34/22 34/46/34 35/47/35
f 22/34/22 35/47/35 23/35/23
f 23/35/23 35/47/35 36/48/36
f 23/35/23 36/48/36 24/36/24
f 24/36/24 36/48/36 37/49/37
f 24/36/24 37/49/37 25/37/25
f 25/37/25 37/49/37 38/50/38
f 25/37/25 38/50/38 26/38/26
f 26/38/26 38/50/38 39/51/39
f 26/38/26 39/51/39 27/39/27
f 27/39/27 39/51/39 40/52/40
f 27/39/27 40/52/40 28/40/28
f 28/40/28 40/52/40 29/82/29
f 28/40/28 29/82/29 17/81/17
f 29/53/29 41/65/41 42/66/42
f 29/53/29 42/66/42 30/54/30
f 30/54/30 42/66/42 43/67/43
f 30/54/30 43/67/43 31/55/31
f 31/55/31 43/67/43 44/68/44
f 31/55/31 44/68/44 32/56/32
f 32/56/32 44/68/44 45/69/45
f 32/56/32 45/69/45 33/57/33
f 33/57/33 45/69/45 46/70/46
f 33/57/33 46/70/46 34/58/34
f 34/58/34 46/70/46 47/71/47
f 34/58/34 47/71/47 35/59/35
f 35/59/35 47/71/47 48/72/48
f 35/59/35 48/72/48 36/60/36
f 36/60/36 48/72/48 49/73/49
f 36/60/36 49/73/49 37/61/37
f 37/61/37 49/73/49 50/74/50
f 37/61/37 50/74/50 38/62/38
f 38/62/38 50/74/50 51/75/51
f 38/62/38 51/75/51 39/63/39
f 39/63/39 51/75/51 52/76/52
f 39/63/39 52/76/52 40/64/40
f 40/64/40 52/76/52 41/65/41
f 40/64/40 41/65/41 29/53/29
f 41/65/41 56/80/56 42/66/42
f 42/66/42 56/80/56 43/67/43
f 43/67/43 56/80/56 54/78/54
f 43/67/43 54/78/54 44/68/44
f 44/68/44 54/78/54 45/69/45
f 45/69/45 54/78/54 46/70/46
f 46/70/46 54/78/54 53/77/53
f 46/70/46 53/77/53 47/71/47
f 47/71/47 53/77/53 48/72/48
f 48/72/48 53/77/53 49/73/49
f 49/73/49 53/77/53 55/79/55
f 49/73/49 55/79/55 50/74/50
f 50/74/50 55/79/55 51/75/51
f 51/75/51 55/79/55 52/76/52
f 52/76/52 55/79/55 56/80/56
f 52/76/52 56/80/56 41/65/41
f 55/79/55 53/77/53 54/78/54
f 55/79/55 54/78/54 56/80/56
# 108 faces

g
